<svg width="24" height="24" viewBox="0 0 24 24" fill="none" xmlns="http://www.w3.org/2000/svg">
<path d="M12 4C11.606 4 11.2159 4.0776 10.8519 4.22836C10.488 4.37913 10.1573 4.6001 9.87868 4.87868C9.6001 5.15726 9.37913 5.48797 9.22836 5.85195C9.0776 6.21593 9 6.60603 9 7C9 7.39397 9.0776 7.78407 9.22836 8.14805C9.37913 8.51203 9.6001 8.84274 9.87868 9.12132C10.1573 9.3999 10.488 9.62087 10.8519 9.77164C11.2159 9.9224 11.606 10 12 10C12.7956 10 13.5587 9.68393 14.1213 9.12132C14.6839 8.55871 15 7.79565 15 7C15 6.20435 14.6839 5.44129 14.1213 4.87868C13.5587 4.31607 12.7956 4 12 4ZM7 7C7 5.67392 7.52678 4.40215 8.46447 3.46447C9.40215 2.52678 10.6739 2 12 2C13.3261 2 14.5979 2.52678 15.5355 3.46447C16.4732 4.40215 17 5.67392 17 7C17 8.32608 16.4732 9.59785 15.5355 10.5355C14.5979 11.4732 13.3261 12 12 12C10.6739 12 9.40215 11.4732 8.46447 10.5355C7.52678 9.59785 7 8.32608 7 7ZM3.5 19C3.5 17.6739 4.02678 16.4021 4.96447 15.4645C5.90215 14.5268 7.17392 14 8.5 14H15.5C16.1566 14 16.8068 14.1293 17.4134 14.3806C18.02 14.6319 18.5712 15.0002 19.0355 15.4645C19.4998 15.9288 19.8681 16.48 20.1194 17.0866C20.3707 17.6932 20.5 18.3434 20.5 19V21H18.5V19C18.5 18.2044 18.1839 17.4413 17.6213 16.8787C17.0587 16.3161 16.2956 16 15.5 16H8.5C7.70435 16 6.94129 16.3161 6.37868 16.8787C5.81607 17.4413 5.5 18.2044 5.5 19V21H3.5V19Z" fill="#FAFAFA"/>
</svg>
